<?xml version="1.0" encoding="utf-8"?>
<!DOCTYPE svg PUBLIC "-//W3C//DTD SVG 1.1//EN" "http://www.w3.org/Graphics/SVG/1.1/DTD/svg11.dtd">
<svg version="1.1" id="Layer_1" xmlns="http://www.w3.org/2000/svg" xmlns:xlink="http://www.w3.org/1999/xlink" x="0px" y="0px"
	 width="191px" height="34px" viewBox="0 0 191 34" enable-background="new 0 0 191 34" xml:space="preserve">
<path fill="#FFF212" d="M117.129,16.27c-1.139,1.214-2.227,2.474-3.271,3.77c-1.646,2.073-3.236,4.202-4.574,6.49
	c-0.582,0.986-1.043,2.046-1.302,3.163c0.108,0.038,0.195-0.079,0.297-0.104c1.211-0.523,2.17-1.462,3.084-2.388
	c1.753-1.69,3.229-3.635,4.803-5.484c0.864-1.038,1.749-2.104,2.225-3.387c0.242-0.712,0.298-1.486,0.65-2.16
	c-0.164-0.633,0.007-1.29,0.279-1.866C118.563,14.928,117.803,15.553,117.129,16.27 M170.413,15.481
	c-1.3,1.546-2.61,3.09-3.75,4.761c1.475-0.449,2.522-1.662,3.421-2.849c0.743-0.984,1.366-2.087,1.639-3.299
	C171.236,14.508,170.816,14.989,170.413,15.481 M99.149,0.682c0.223-0.293,0.52-0.561,0.891-0.639
	c0.546-0.125,1.112,0.039,1.604,0.279c0.586,0.311,0.901,0.965,0.987,1.6c0.073,0.453-0.003,0.91-0.088,1.354
	c-0.326,1.87-0.665,3.738-0.916,5.62c-0.203,1.451-0.308,2.913-0.42,4.373c-0.141,1.921-0.225,3.846-0.267,5.771
	c-0.032,1.736-0.07,3.475,0.006,5.21c0.056,1.313,0.167,2.632,0.479,3.913c0.196,0.69,0.414,1.418,0.93,1.946
	c0.155,0.179,0.404,0.266,0.639,0.218c0.419-0.081,0.773-0.365,1.206-0.406c0.217-2.623,1.357-5.059,2.663-7.305
	c0.826-1.42,1.744-2.784,2.729-4.098c0.657-0.861,1.313-1.726,2.054-2.519c0.477-0.533,0.94-1.077,1.448-1.58
	c0.359-0.368,0.77-0.682,1.145-1.033c1.323-1.186,2.728-2.349,4.406-2.991c0.604-0.221,1.235-0.424,1.887-0.396
	c0.894,0.031,1.801,0.405,2.372,1.109c0.359,0.431,0.515,0.984,0.64,1.521c0.286,1.299,0.128,2.735-0.628,3.852
	c0.128,0.438,0.244,0.899,0.166,1.356c-0.402,2.3-0.862,4.59-1.14,6.909c-0.118,0.916-0.103,1.872,0.227,2.746
	c0.238-0.608,0.602-1.226,1.209-1.523c0.405-0.177,0.86-0.285,1.304-0.201c0.411,0.07,0.79,0.284,1.084,0.58
	c0.217-1.669,0.502-3.328,0.746-4.993c0.123-0.861,0.258-1.723,0.295-2.594c0.071-1.293,0.082-2.633,0.594-3.847
	c0.512-1.172,2.105-1.679,3.205-1.028c0.573,0.297,0.869,0.92,1.007,1.522c0.071,0.381,0.198,0.768,0.134,1.16
	c-0.073,0.659-0.255,1.299-0.406,1.943c0.616-1.126,1.45-2.109,2.245-3.109c0.713-0.884,1.556-1.69,2.58-2.199
	c1.166-0.539,2.601-0.154,3.501,0.712c0.893,0.97,1.334,2.276,1.468,3.568c0.17,1.811,0.331,3.622,0.53,5.429
	c0.231,1.833,0.258,3.738,1.002,5.459c0.479-0.46,1.158-0.925,1.848-0.641c-0.263-1.522-0.077-3.089,0.34-4.566
	c0.652-2.269,1.753-4.381,2.996-6.378c0.75-1.192,1.591-2.334,2.566-3.353c0.734-0.777,1.552-1.488,2.484-2.019
	c1.139-0.651,2.434-1.069,3.753-1.064c1.283,0.114,2.492,0.643,3.581,1.31c0.876,0.528,1.466,1.554,1.376,2.587
	c-0.171,1.244-1.627,2.08-2.799,1.669c-0.89-0.26-1.401-1.111-2.188-1.543c-1.044-0.185-1.97,0.501-2.701,1.16
	c-0.799,0.738-1.437,1.632-2.041,2.531c-0.816,1.247-1.497,2.576-2.129,3.924c-0.432,0.934-0.825,1.891-1.085,2.888
	c-0.219,0.869-0.315,1.785-0.146,2.672c0.097,0.478,0.434,0.965,0.941,1.049c1.133,0.14,2.288-0.087,3.336-0.522
	c1.107-0.458,2.106-1.144,3.01-1.924c0.918-0.758,1.625-1.726,2.329-2.676c0.222-0.285,0.407-0.627,0.749-0.789
	c0.584-0.296,1.304-0.125,1.806,0.263c0.673-2.018,1.706-3.894,2.859-5.673c1.027-1.567,2.114-3.11,3.42-4.461
	c0.817-0.828,1.733-1.576,2.771-2.11c0.771-0.388,1.612-0.648,2.477-0.7c0.905-0.026,1.833,0.354,2.413,1.06
	c0.562,0.725,0.84,1.643,0.878,2.552c0.053,1.039-0.233,2.056-0.557,3.032c-0.417,1.184-1.023,2.292-1.706,3.343
	c-0.911,1.422-2.082,2.744-3.608,3.518c-0.984,0.475-2.093,0.731-3.187,0.626c-0.526-0.046-1.044-0.156-1.551-0.302
	c-0.453,1.476-0.828,3.008-0.752,4.562c0.045,0.353,0.438,0.487,0.743,0.537c1.151,0.213,2.312-0.176,3.307-0.74
	c0.859-0.471,1.634-1.079,2.389-1.7c1.537-1.284,2.923-2.792,3.855-4.577c0.187-0.314,0.27-0.695,0.546-0.952
	c0.572-0.535,1.501-0.556,2.16-0.168c0-2.422-0.138-4.844-0.369-7.255c-0.034-0.397-0.112-0.801-0.022-1.197
	c0.196-0.974,0.972-1.826,1.945-2.064c0.854-0.202,1.807,0.177,2.293,0.909c0.284,0.398,0.452,0.867,0.538,1.348
	c0.59-0.958,1.281-1.871,2.159-2.583c0.638-0.513,1.375-0.926,2.181-1.097c1.047-0.228,2.187-0.095,3.117,0.449
	c0.674,0.378,1.125,1.062,1.359,1.786c0.26,0.788,0.337,1.75-0.193,2.445c-0.616,0.656-1.722,0.824-2.483,0.326
	c-0.358-0.263-0.489-0.709-0.688-1.086c-0.95,0.784-1.774,1.715-2.45,2.744c-1.049,1.519-2.006,3.128-2.578,4.892
	c-0.602,1.8-0.723,3.717-0.674,5.602c0.021,1.269,0.125,2.534,0.141,3.803c-0.091,1.599-2.05,2.697-3.476,2.004
	c-0.56-0.256-0.93-0.803-1.091-1.381c-0.262-0.845-0.13-1.733-0.067-2.596c0.079-1.022,0.165-2.045,0.219-3.069
	c-0.849,1.701-2.002,3.246-3.384,4.55c-1.191,1.103-2.509,2.099-4.005,2.751c-1.2,0.533-2.5,0.855-3.814,0.89
	c-1.172-0.003-2.372-0.262-3.361-0.911c-0.804-0.517-1.379-1.322-1.774-2.18c-0.445-0.981-0.639-2.066-0.621-3.142
	c-0.652,0.842-1.44,1.562-2.192,2.312c-0.978,0.931-1.894,1.976-3.12,2.585c-0.719,0.379-1.445,0.751-2.217,1.014
	c-1.288,0.374-2.686,0.426-3.985,0.069c-1.264-0.321-2.356-1.176-3.035-2.28c-0.321,0.687-0.989,1.116-1.653,1.428
	c-1.031,0.438-2.247,0.223-3.175-0.364c-0.889-0.55-1.469-1.465-1.915-2.385c-0.64-1.354-0.956-2.833-1.196-4.303
	c-0.39-2.435-0.481-4.903-0.801-7.346c-3.106,4.212-5.911,8.737-7.519,13.749c-0.161,0.5-0.483,0.956-0.93,1.24
	c-0.733,0.471-1.758,0.451-2.459-0.07c-0.374-0.275-0.61-0.71-0.683-1.164c-0.095-0.563,0.019-1.132,0.11-1.687
	c-0.607,0.846-1.604,1.36-2.631,1.466c-1.291,0.145-2.683-0.292-3.55-1.286c-0.855-1.018-1.214-2.352-1.349-3.649
	c-1.545,1.912-3.338,3.612-5.236,5.168c-1.35,1.072-2.843,2.092-4.579,2.377c-0.881,0.168-1.788-0.108-2.528-0.587
	c-1.003,0.881-2.467,1.217-3.744,0.805c-0.979-0.276-1.814-0.931-2.438-1.721c-0.738-0.932-1.275-2.015-1.62-3.149
	c-0.558-1.749-0.82-3.582-0.882-5.413c-0.099-5.386,0.175-10.78,0.831-16.127c0.221-1.714,0.464-3.432,0.912-5.104
	C98.62,1.743,98.792,1.161,99.149,0.682"/>
<path fill="#FFFFFF" d="M0.451,21.223c2.269-0.078,4.537-0.156,6.807-0.231c0.004,0.992-0.007,1.984,0.005,2.976
	c0.01,0.627,0.226,1.256,0.659,1.717c0.492,0.582,1.233,0.929,1.994,0.955c0.85,0.073,1.653-0.346,2.283-0.882
	c0.504-0.448,0.721-1.12,0.831-1.766c2.27,0,4.538,0,6.807,0c0.017,1.937-0.666,3.852-1.843,5.384
	c-1.443,1.917-3.577,3.353-5.951,3.792c-1.422,0.258-2.9,0.23-4.306-0.112c-1.226-0.297-2.377-0.87-3.384-1.628
	c-0.994-0.752-1.891-1.65-2.552-2.713c-0.891-1.412-1.327-3.083-1.349-4.747C0.447,23.053,0.451,22.138,0.451,21.223 M73.381,32.066
	c0.003-6.462-0.005-12.924,0.004-19.386c2.268,0.003,4.535,0,6.804,0.002c0.002,3.272,0,6.545,0.001,9.817
	c0.066,0.992,0.674,1.904,1.512,2.42c0.607,0.359,1.358,0.41,2.038,0.264c0.529-0.115,0.994-0.423,1.376-0.799
	c0.552-0.463,0.799-1.192,0.844-1.892c0-3.271-0.001-6.541,0.001-9.811c2.268-0.002,4.535,0.002,6.803-0.003
	c0.011,6.463,0.002,12.925,0.005,19.388c-1.196,0.008-2.417-0.212-3.471-0.799c-0.365-0.199-0.705-0.44-1.029-0.699
	c-1.171,0.809-2.551,1.294-3.965,1.44c-1.398,0.139-2.833,0.047-4.177-0.383c-0.792-0.248-1.544-0.613-2.244-1.058
	C76.67,31.674,74.987,32.086,73.381,32.066 M31.723,12.683c1.226-0.003,2.47,0.257,3.54,0.871c1.167,0.671,2.147,1.695,2.69,2.936
	c0.416,0.94,0.576,1.977,0.577,3.001c-2.269,0-4.538,0-6.808,0C31.722,17.22,31.722,14.951,31.723,12.683 M53.187,12.566
	c2.269,0,4.538,0,6.808,0c-0.001,3.097,0,6.194-0.001,9.291c-0.027,0.683,0.075,1.402,0.479,1.971
	c0.525,0.79,1.469,1.229,2.407,1.205c-0.001,2.269,0.001,4.537-0.001,6.807c-2.322,0.015-4.614-0.886-6.346-2.424
	c-0.902,0.787-1.932,1.439-3.058,1.854c-1.049,0.391-2.171,0.567-3.288,0.569c-0.004-2.191-0.002-4.383-0.002-6.574
	c0.812-0.014,1.533-0.484,2.08-1.051c0.35-0.417,0.687-0.868,0.842-1.397c0.103-0.334,0.076-0.687,0.079-1.031
	C53.187,18.713,53.187,15.64,53.187,12.566 M40.146,12.567c2.27-0.002,4.539-0.001,6.809-0.001c0.001,3.191,0,6.383,0.001,9.573
	c-0.013,0.714,0.212,1.445,0.704,1.974c0.538,0.624,1.367,0.932,2.181,0.919c-0.002,2.27,0.001,4.538-0.002,6.808
	c-2.322,0.016-4.613-0.887-6.346-2.424c-0.873,0.763-1.865,1.399-2.952,1.814c-1.079,0.417-2.239,0.608-3.395,0.608
	c-0.001-2.19,0.002-4.38-0.002-6.569c0.814-0.022,1.539-0.488,2.087-1.062c0.354-0.422,0.693-0.879,0.844-1.416
	c0.087-0.303,0.071-0.621,0.071-0.934C40.146,18.762,40.146,15.665,40.146,12.567 M26.199,13.916
	c1.601-0.923,3.461-1.297,5.293-1.35c0,2.23,0,4.46-0.001,6.69c-0.617,0.005-1.244,0.165-1.751,0.527
	c-0.798,0.556-1.256,1.532-1.248,2.497c0,3.186,0,6.371-0.001,9.558c-2.269,0-4.538,0-6.807,0c-0.002-3.186-0.001-6.371-0.001-9.556
	c-0.001-1.234,0.257-2.458,0.678-3.614c0.247-0.66,0.526-1.315,0.906-1.911C23.993,15.59,25.003,14.599,26.199,13.916
	 M60.457,12.683c0.873-0.076,1.747-0.155,2.621-0.227c1.299-0.018,2.607,0.224,3.799,0.746c1.12,0.489,2.121,1.222,2.987,2.079
	c0.758,0.745,1.399,1.611,1.868,2.567c1.03,2.101,1.204,4.572,0.648,6.831c-0.58,2.35-2.171,4.375-4.192,5.672
	c-1.475,0.947-3.22,1.422-4.963,1.484c0.003-2.19,0.001-4.381,0.001-6.571c0.655,0.007,1.279-0.285,1.752-0.728
	c0.449-0.394,0.834-0.895,0.952-1.491c0.126-0.667,0.081-1.385-0.212-2.004c-0.354-0.737-1.055-1.306-1.857-1.475
	c-0.42-0.098-0.852-0.075-1.278-0.077c-0.709,0-1.417,0-2.126,0C60.456,17.221,60.457,14.951,60.457,12.683 M0.45,11.066
	c2.269,0.038,4.537,0.075,6.806,0.116c-0.021,0.808,0.336,1.59,0.897,2.158c0.531,0.49,1.258,0.747,1.978,0.728
	c2.087,0,4.081,0.802,5.84,1.87c1.141,0.713,2.115,1.703,2.752,2.892c0.835,1.537,1.114,3.313,1.114,5.045
	c-2.269,0.001-4.537,0-6.806,0.001c-0.002-0.716-0.182-1.457-0.644-2.02c-0.402-0.505-0.985-0.848-1.607-1.005
	c-0.56-0.146-1.145-0.062-1.713-0.135c-1.886-0.152-3.722-0.905-5.14-2.161c-0.897-0.804-1.717-1.715-2.301-2.774
	C0.821,14.351,0.445,12.702,0.45,11.066 M53.187,5.297c1.241-0.004,2.501,0.265,3.58,0.895c1.15,0.673,2.117,1.688,2.651,2.917
	c0.415,0.939,0.575,1.974,0.576,2.996c-2.27,0.002-4.539,0-6.808,0.001C53.187,9.836,53.186,7.566,53.187,5.297 M40.146,4.606
	c2.116-0.004,4.231-0.001,6.347-0.001c0.001,1.999,0.001,3.999,0,5.999c-2.115,0.001-4.231,0-6.347,0
	C40.147,8.605,40.146,6.606,40.146,4.606 M8.358,1.523c1.449-0.244,2.957-0.202,4.378,0.185c1.334,0.361,2.559,1.065,3.596,1.972
	c0.798,0.708,1.558,1.477,2.124,2.387c0.912,1.425,1.358,3.119,1.379,4.804c0.005,0.989,0.001,1.978,0.002,2.966
	c-2.27,0-4.538,0.001-6.808-0.001c-0.002-0.963,0.004-1.925-0.003-2.888c-0.006-0.725-0.281-1.453-0.808-1.96
	c-0.505-0.522-1.23-0.795-1.95-0.805c-0.81-0.036-1.562,0.368-2.165,0.875c-0.515,0.447-0.734,1.126-0.847,1.777
	c-2.27,0-4.539,0-6.808,0C0.433,8.903,1.062,6.98,2.219,5.436C3.684,3.436,5.899,1.945,8.358,1.523"/>
</svg>
