<?xml version="1.0" encoding="UTF-8"?>
<!DOCTYPE svg PUBLIC "-//W3C//DTD SVG 1.1//EN" "http://www.w3.org/Graphics/SVG/1.1/DTD/svg11.dtd">
<svg version="1.1" id="Layer_1" xmlns="http://www.w3.org/2000/svg" xmlns:xlink="http://www.w3.org/1999/xlink" x="0px" y="0px" width="80px" height="34px" viewBox="-0.5 2.6 80 27.7" enable-background="new -0.5 2.6 80 27.7" xml:space="preserve">
<path fill="#FFFFFF" d="M-0.5,19.8V22c0,2.3,0.8,4.3,2.5,5.9s3.6,2.4,5.9,2.4c2.3,0,4.2-0.8,5.9-2.4c1.6-1.6,2.5-3.5,2.5-5.7h-5.9  c-0.1,0.6-0.3,1.2-0.8,1.6s-1.1,0.7-1.7,0.7c-0.7,0-1.3-0.2-1.8-0.7s-0.7-1-0.7-1.8v-0.1v-2.3L-0.5,19.8L-0.5,19.8z"/>
<path fill="#FFFFFF" d="M-0.5,11c0,2.3,0.8,4.3,2.4,5.9c1.6,1.7,3.6,2.5,5.9,2.5l0,0c0.6,0,1.2,0.2,1.7,0.6c0.6,0.5,0.9,1.2,0.9,2.1  h5.9c0-3.5-1.3-5.9-4.1-7.3c-1.5-0.8-2.9-1.2-4.4-1.2c-0.7,0-1.3-0.3-1.7-0.7c-0.5-0.6-0.7-1.1-0.7-1.8L-0.5,11L-0.5,11z"/>
<path fill="#FFFFFF" d="M2,5c-1.6,1.6-2.5,3.5-2.5,5.8h5.9c0.1-0.6,0.3-1.2,0.8-1.6c0.5-0.4,1.1-0.7,1.7-0.7c0.7,0,1.3,0.2,1.8,0.7  s0.7,1.1,0.7,1.8v0.1v2.3h5.9V11c0-2.3-0.8-4.3-2.5-5.9c-1.7-1.7-3.6-2.5-5.9-2.5C5.6,2.6,3.7,3.4,2,5"/>
<path fill="#FFFFFF" d="M19,16.4c-0.7,1.4-1.1,2.9-1.1,4.3v8.3h5.9v-8.3c0-0.6,0.2-1.2,0.6-1.7c0.5-0.6,1.2-0.9,2-0.9v-5.8  C22.9,12.4,20.4,13.8,19,16.4"/>
<path fill="#FFFFFF" d="M33.9,12.4v8.3c0,0.6-0.3,1.1-0.8,1.7c-0.6,0.6-1.2,0.9-1.8,0.9V29c2.1,0,3.9-0.7,5.5-2.1  c1.6,1.4,3.5,2.1,5.5,2.1l0,0v-5.9l0,0c-0.7,0-1.3-0.2-1.8-0.7s-0.7-1.1-0.7-1.8v-8.3H33.9L33.9,12.4z"/>
<path fill="#FFFFFF" d="M73.6,12.4v8.6c-0.1,0.7-0.3,1.2-0.8,1.6c-0.5,0.5-1.1,0.7-1.7,0.7c-0.7,0-1.2-0.2-1.7-0.7s-0.7-1-0.8-1.6  v-8.6h-5.9v16.8c1.6,0,2.9-0.4,3.9-1.3c1.4,0.9,2.9,1.3,4.5,1.3h0.1c1.6,0,3.1-0.4,4.4-1.3c1.1,0.9,2.3,1.3,3.9,1.3V12.4H73.6z"/>
<rect fill="#FFFFFF" x="33.9" y="5.4" width="5.5" height="5.2"/>
<path fill="#FFFFFF" d="M26.6,18.3h5.9c0-1.7-0.5-3.1-1.6-4.2c-1.1-1.1-2.5-1.7-4.3-1.7V18.3z"/>
<path fill="#FFFFFF" d="M51.5,12.4v5.9h2.3c0.7,0,1.3,0.2,1.8,0.7s0.7,1.1,0.7,1.8c0,0.7-0.2,1.2-0.7,1.7s-1,0.8-1.7,0.8V29  c2.3-0.1,4.2-0.9,5.8-2.5c1.6-1.6,2.4-3.6,2.4-5.9c0-2.3-0.8-4.3-2.4-5.9c-1.7-1.7-3.6-2.5-5.9-2.5L51.5,12.4L51.5,12.4z"/>
<path fill="#FFFFFF" d="M45.2,12.4v8.3c0,0.6-0.3,1.1-0.8,1.7c-0.6,0.6-1.2,0.9-1.8,0.9V29c2.1,0,3.9-0.7,5.5-2.1  c1.6,1.4,3.5,2.1,5.5,2.1l0,0v-5.9l0,0c-0.7,0-1.3-0.2-1.8-0.7s-0.7-1.1-0.7-1.8v-8.3H45.2L45.2,12.4z"/>
<path fill="#FFFFFF" d="M45.2,11.9h5.9c0-1.7-0.5-3.1-1.6-4.2C48.4,6.6,47,6,45.2,6V11.9z"/>
</svg>